<?xml version="1.0" encoding="UTF-8" standalone="no"?>
<svg
   width="24"
   height="24"
   viewBox="0 0 24 24"
   fill="none"
   stroke="currentColor"
   stroke-width="2"
   stroke-linecap="round"
   stroke-linejoin="round"
   class="feather feather-align-justify"
   version="1.1"
   id="svg10"
   sodipodi:docname="align-justify-blue.svg"
   inkscape:version="1.2.1 (9c6d41e410, 2022-07-14)"
   xmlns:inkscape="http://www.inkscape.org/namespaces/inkscape"
   xmlns:sodipodi="http://sodipodi.sourceforge.net/DTD/sodipodi-0.dtd"
   xmlns="http://www.w3.org/2000/svg"
   xmlns:svg="http://www.w3.org/2000/svg">
  <defs
     id="defs14" />
  <sodipodi:namedview
     id="namedview12"
     pagecolor="#ffffff"
     bordercolor="#000000"
     borderopacity="0.25"
     inkscape:showpageshadow="2"
     inkscape:pageopacity="0.0"
     inkscape:pagecheckerboard="0"
     inkscape:deskcolor="#d1d1d1"
     showgrid="false"
     inkscape:zoom="34.875"
     inkscape:cx="10.136201"
     inkscape:cy="12.014337"
     inkscape:window-width="1920"
     inkscape:window-height="1017"
     inkscape:window-x="-8"
     inkscape:window-y="-8"
     inkscape:window-maximized="1"
     inkscape:current-layer="svg10" />
  <line
     x1="21"
     y1="10"
     x2="3"
     y2="10"
     id="line2"
     style="stroke:none;fill:#ffffff;fill-opacity:1" />
  <line
     x1="21"
     y1="6"
     x2="3"
     y2="6"
     id="line4"
     style="stroke:none;fill:#ffffff;fill-opacity:1" />
  <line
     x1="21"
     y1="14"
     x2="3"
     y2="14"
     id="line6"
     style="stroke:none;fill:#ffffff;fill-opacity:1" />
  <line
     x1="21"
     y1="18"
     x2="3"
     y2="18"
     id="line8"
     style="stroke:none;fill:#ffffff;fill-opacity:1" />
  <path
     style="fill:#ffffff;stroke-width:0.151181;stroke:none;fill-opacity:1"
     d="M 2.7195465,6.9422088 C 2.2015477,6.7567204 1.9222932,6.2711701 2.0482082,5.774928 2.1302777,5.4514851 2.3170813,5.2377705 2.6523297,5.0837767 L 2.7956989,5.0179211 H 12 21.204301 l 0.143369,0.065856 c 0.335249,0.1539938 0.522052,0.3677084 0.604122,0.6911513 0.113355,0.4467425 -0.113033,0.9059553 -0.554907,1.1255935 l -0.135236,0.06722 -9.218638,0.006 C 4.5069365,6.9786503 2.8052401,6.9728946 2.7195465,6.9422088 Z"
     id="path381" />
  <path
     style="fill:#ffffff;stroke-width:0.151181;stroke:none;fill-opacity:1"
     d="M 2.8198924,10.966688 C 2.5704481,10.917058 2.3375398,10.763297 2.1938894,10.553413 1.8494372,10.050143 2.0243631,9.4084445 2.5867841,9.1121158 L 2.7383513,9.0322581 H 12 21.261649 l 0.135236,0.06722 c 0.441874,0.2196383 0.668262,0.6788511 0.554907,1.1255939 -0.08207,0.323443 -0.268873,0.537157 -0.604122,0.691151 l -0.143369,0.06586 -9.132616,0.0042 c -5.0229395,0.0023 -9.186246,-0.0065 -9.2517926,-0.01955 z"
     id="path383" />
  <path
     style="fill:#ffffff;stroke-width:0.151181;stroke:none;fill-opacity:1"
     d="M 2.7195465,14.942209 C 2.2015477,14.75672 1.9222932,14.27117 2.0482082,13.774928 c 0.08207,-0.323443 0.2688731,-0.537157 0.6041215,-0.691151 l 0.1433692,-0.06586 H 12 21.204301 l 0.143369,0.06586 c 0.335249,0.153994 0.522052,0.367708 0.604122,0.691151 0.113355,0.446742 -0.113033,0.905955 -0.554907,1.125594 l -0.135236,0.06722 -9.218638,0.006 c -7.5360745,0.0049 -9.2377709,-8.49e-4 -9.3234645,-0.03153 z"
     id="path385" />
  <path
     style="fill:#ffffff;stroke-width:0.151181;stroke:none;fill-opacity:1"
     d="M 2.8198924,18.966688 C 2.5704481,18.917058 2.3375398,18.763297 2.1938894,18.553413 1.8494372,18.050143 2.0243631,17.408445 2.5867841,17.112116 l 0.1515672,-0.07986 H 12 21.261649 l 0.135236,0.06722 c 0.441874,0.219639 0.668262,0.678852 0.554907,1.125594 -0.08207,0.323443 -0.268873,0.537157 -0.604122,0.691151 l -0.143369,0.06586 -9.132616,0.0042 c -5.0229395,0.0023 -9.186246,-0.0065 -9.2517926,-0.01955 z"
     id="path387" />
  <path
     style="fill:#ffffff;stroke-width:0.151181;stroke:none;fill-opacity:1"
     d="M 3.6272401,6.870631 2.7096774,6.8530466 2.5782468,6.7757803 C 2.4117159,6.677879 2.2465568,6.495841 2.1726241,6.3287039 2.0871867,6.1355586 2.10948,5.7892904 2.2204829,5.5853416 2.3179413,5.4062783 2.3713375,5.3540463 2.5932953,5.2206576 L 2.7636514,5.1182796 H 12 21.236349 l 0.170356,0.102378 c 0.221619,0.1331854 0.275379,0.1856666 0.371957,0.3631131 0.104617,0.1922146 0.129183,0.4911978 0.05798,0.7055827 -0.06067,0.1826603 -0.249782,0.3968064 -0.443554,0.5022704 l -0.146607,0.079793 -8.350837,0.0084 c -4.5929604,0.00462 -8.7637404,4.862e-4 -9.2683999,-0.00919 z"
     id="path473" />
  <path
     style="fill:#ffffff;stroke-width:0.151181;stroke:none;fill-opacity:1"
     d="m 6.4086022,10.883115 c -3.516941,-0.01507 -3.674443,-0.01798 -3.7706094,-0.06948 -0.2021369,-0.108261 -0.340111,-0.246551 -0.431792,-0.432782 -0.08303,-0.168657 -0.089621,-0.202576 -0.079253,-0.4078518 0.00682,-0.1351341 0.031522,-0.2653286 0.062295,-0.3284063 0.079649,-0.1632575 0.2411,-0.3347813 0.4019708,-0.4270486 L 2.7383513,9.1331546 H 12 21.261649 l 0.146664,0.08412 c 0.327275,0.187711 0.487173,0.479357 0.463663,0.8456994 -0.02176,0.339057 -0.175444,0.564136 -0.505758,0.740709 l -0.133243,0.07123 -5.577061,0.01197 c -3.067384,0.0066 -7.2286739,0.0049 -9.2473118,-0.0038 z"
     id="path475" />
  <path
     style="fill:#ffffff;stroke-width:0.151181;stroke:none;fill-opacity:1"
     d="M 3.6272401,14.870631 2.7096774,14.853047 2.5782468,14.77578 C 2.4117159,14.677879 2.2465568,14.495841 2.1726241,14.328704 2.0871867,14.135559 2.10948,13.78929 2.2204829,13.585342 2.3179413,13.406278 2.3713375,13.354046 2.5932953,13.220658 L 2.7636514,13.11828 H 12 21.236349 l 0.170356,0.102378 c 0.221619,0.133185 0.275379,0.185666 0.371957,0.363113 0.104617,0.192214 0.129183,0.491198 0.05798,0.705582 -0.06067,0.182661 -0.249782,0.396807 -0.443554,0.502271 l -0.146607,0.07979 -8.350837,0.0084 c -4.5929604,0.0046 -8.7637404,4.86e-4 -9.2683999,-0.0092 z"
     id="path477" />
  <path
     style="fill:#ffffff;stroke-width:0.151181;stroke:none;fill-opacity:1"
     d="m 6.4086022,18.883115 c -3.516941,-0.01507 -3.674443,-0.01798 -3.7706094,-0.06948 -0.2021369,-0.108261 -0.340111,-0.246551 -0.431792,-0.432782 -0.08303,-0.168657 -0.089621,-0.202576 -0.079253,-0.407852 0.00682,-0.135134 0.031522,-0.265328 0.062295,-0.328406 0.079649,-0.163258 0.2411,-0.334781 0.4019708,-0.427049 l 0.1471377,-0.08439 H 12 21.261649 l 0.146664,0.08412 c 0.327275,0.187711 0.487173,0.479357 0.463663,0.845699 -0.02176,0.339057 -0.175444,0.564136 -0.505758,0.740709 l -0.133243,0.07123 -5.577061,0.01197 c -3.067384,0.0066 -7.2286739,0.0049 -9.2473118,-0.0038 z"
     id="path479" />
</svg>
