<?xml version="1.0" encoding="UTF-8" standalone="no"?>
<svg
   width="24"
   height="24"
   viewBox="0 0 24 24"
   fill="none"
   stroke="currentColor"
   stroke-width="2"
   stroke-linecap="round"
   stroke-linejoin="round"
   class="feather feather-activity"
   version="1.1"
   id="svg4"
   sodipodi:docname="duck.svg"
   inkscape:version="1.2.1 (9c6d41e410, 2022-07-14)"
   xml:space="preserve"
   xmlns:inkscape="http://www.inkscape.org/namespaces/inkscape"
   xmlns:sodipodi="http://sodipodi.sourceforge.net/DTD/sodipodi-0.dtd"
   xmlns="http://www.w3.org/2000/svg"
   xmlns:svg="http://www.w3.org/2000/svg"><defs
     id="defs8" /><sodipodi:namedview
     id="namedview6"
     pagecolor="#ffffff"
     bordercolor="#000000"
     borderopacity="0.25"
     inkscape:showpageshadow="2"
     inkscape:pageopacity="0.0"
     inkscape:pagecheckerboard="0"
     inkscape:deskcolor="#d1d1d1"
     showgrid="false"
     inkscape:zoom="12.330175"
     inkscape:cx="22.221908"
     inkscape:cy="16.058167"
     inkscape:window-width="1920"
     inkscape:window-height="1017"
     inkscape:window-x="-8"
     inkscape:window-y="-8"
     inkscape:window-maximized="1"
     inkscape:current-layer="svg4" /><path
     style="fill:none;stroke:#e5e5e5;stroke-width:2"
     d="M 20.946236,5.0964119 C 18.90345,5.4525282 16.046375,3.9560252 14.760537,2.2575701 12.471803,3.2416506 12.061736,5.1935299 13.341255,8.0158015 13.78239,10.511569 9.9599513,11.872147 4.1361945,12.76054 l 1.5003843,1.824792 -3.3127311,1.135427 c 6.7556885,3.598543 13.1405253,2.845518 16.0051713,-0.04055 0.529105,-0.997464 1.157034,-1.773091 0.405509,-3.03139 -1.619337,-1.686753 -3.110093,-3.4328862 -3.000769,-5.4437589 2.375419,-0.1573568 4.671392,-0.7643694 5.212477,-2.1086482 z"
     id="path907"
     sodipodi:nodetypes="cccccccccc" /><path
     style="fill:none;stroke:#e5e5e5;stroke-width:2"
     d="m 10.599356,18.206167 c -0.48972,1.775501 -0.6574713,3.043204 0.106088,3.394475 1.740616,0.480779 3.936451,0.306742 5.271621,-0.486611 0.360676,-0.623692 -2.224067,-1.39392 -3.203523,-0.33028"
     id="path1005"
     sodipodi:nodetypes="cccc" /></svg>
